<svg height="512" viewBox="0 0 58 58" width="512" xmlns="http://www.w3.org/2000/svg"><g id="Page-1" fill="none" fill-rule="evenodd"><g id="070---Map"><rect id="Rectangle" fill="#4fba6f" height="58" rx="4" width="58"/><path id="Path" d="m54 17h4v-4h-45c-.5522847 0-1-.4477153-1-1v-12h-4v42c0 .5522847-.44771525 1-1 1h-7v4h29c.5522847 0 1 .4477153 1 1v10h4v-10c0-.5522847.4477153-1 1-1h23v-4h-45c-.5522847 0-1-.4477153-1-1v-24c0-.5522847.4477153-1 1-1z" fill="#f3d55b"/><path id="Path" d="m54 17c0 13-13 22-13 22s-13-9-13-22c0-7.17970175 5.8202983-13 13-13s13 5.82029825 13 13z" fill="#e64c3c"/><circle id="Oval" cx="41" cy="17" fill="#ecf0f1" r="6"/></g></g></svg>