<svg id="Capa_1" enable-background="new 0 0 504.5 504.5" height="512" viewBox="0 0 504.5 504.5" width="512" xmlns="http://www.w3.org/2000/svg"><g><path d="m252.25 40.698h-10c-4.392 0 1.27-.766-3.001-.309-60.645 6.485-107.876 57.82-107.876 120.186v49.097h231.754v-49.097c0-66.759-44.118-119.877-110.877-119.877z" fill="#ffe187"/><path d="m252.25 39.698c-4.393 0-8.729.24-13 .697 60.644 6.485 107.877 57.814 107.877 120.18v49.097h26v-49.097c0-66.759-54.118-120.877-120.877-120.877z" fill="#ffd26f"/><g><path d="m373.127 209.672c-4.142 0-7.5-3.358-7.5-7.5v-73.795c0-62.516-50.861-113.377-113.377-113.377-62.517 0-113.377 50.861-113.377 113.377v78.874c0 4.142-3.358 7.5-7.5 7.5s-7.5-3.358-7.5-7.5v-78.874c0-70.787 57.589-128.377 128.377-128.377 70.787 0 128.377 57.59 128.377 128.377v73.795c0 4.142-3.358 7.5-7.5 7.5z" fill="#dedbec"/></g><path d="m337.911 171.89h8.409c20.866 0 37.781 16.915 37.781 37.782 0 5.179-1.042 10.115-2.928 14.609-1.895 4.515-4.65 16.561-8.047 19.983-2.238 2.255-4.751-3.747-7.497-2.111-5.651 3.367-12.255 5.301-19.31 5.301h-8.396l-4.113-43.952z" fill="#1a4c65"/><path d="m130.621 336.584c-30.345-.039-55.121 24.529-55.16 54.875v103.028c0 5.523 4.477 10 10 10h50.758l7.5-10 7.5 10h70.456l34.053-10 27.096 10h70.456l7.5-10 7.5 10h40.758c5.523 0 10-4.477 10-10v-102.576c.039-30.345-24.529-55.263-54.875-55.302z" fill="#245e7c"/><g fill="#1a4c65"><path d="m374.164 336.609-243.543-.025c-.042 0-.084.003-.126.003l213.67.022c30.346.039 54.913 24.957 54.875 55.302v102.576c0 5.523-4.477 10-10 10h30c5.523 0 10-4.477 10-10v-102.576c.038-30.345-24.53-55.264-54.876-55.302z"/><path d="m151.219 504.487v-61.305c0-4.142-3.358-7.5-7.5-7.5s-7.5 3.358-7.5 7.5v61.305z"/><path d="m368.281 504.487v-61.305c0-4.142-3.358-7.5-7.5-7.5s-7.5 3.358-7.5 7.5v61.305z"/></g><path d="m221.679 388.062 30.571 39.487 30.571-39.487v-17.708h-61.142z" fill="#ea7bc1"/><path d="m221.675 504.5 30.575-76.951 30.575 76.951z" fill="#ea7bc1"/><path d="m209.065 255.199v93.913l42.977 21.242 43.785-26.883v-88.272z" fill="#f6a96c"/><path d="m166.239 171.89h-8.396c-20.866 0-37.781 16.915-37.781 37.782 0 20.866 16.915 37.782 37.781 37.782h8.409l7.528-41.329z" fill="#245e7c"/><path d="m252.25 326.028c-4.708 0-9.328.617-13.831-.121-40.92-6.702-72.167-42.651-72.167-85.995v-60.31c0-48.113 38.502-87.115 85.999-87.115 47.496 0 75.998 39.003 75.998 87.115v60.31c-.001 48.113-28.503 86.116-75.999 86.116z" fill="#fed2a4"/><path d="m252.25 92.487c-4.709 0-9.327.389-13.83 1.127 40.919 6.702 72.168 42.646 72.168 85.988v60.31c0 43.343-31.249 79.286-72.168 85.988 4.503.738 9.122 1.127 13.83 1.127 47.495 0 85.998-39.003 85.998-87.115v-60.31c0-48.112-38.502-87.115-85.998-87.115z" fill="#ffbd86"/><path d="m190.067 92.487s27.974 55.194 150.161 56.982c3.129.046 5.359-3.035 4.338-5.993-7.221-20.92-39.72-87.093-154.499-50.989z" fill="#ffe187"/><path d="m365.627 242.148v10.194c0 8.574-6.975 15.549-15.549 15.549h-97.632c-4.142 0-7.5 3.358-7.5 7.5s3.358 7.5 7.5 7.5h97.632c16.845 0 30.549-13.705 30.549-30.549v-26.845c-3.211 6.95-8.466 12.758-15 16.651z" fill="#245e7c"/><path d="m295.827 316.897-43.785 53.456 43.31 31.809c2.737 2.01 6.635.471 7.26-2.867l10.807-57.697c.587-3.136-.357-6.365-2.542-8.69z" fill="#1a4c65"/><path d="m209.065 316.897 42.977 53.456-42.885 31.765c-2.736 2.026-6.648.49-7.275-2.856l-10.788-57.606c-.594-3.173.38-6.438 2.616-8.767z" fill="#1a4c65"/></g></svg>